<?xml version="1.0" standalone="no"?><!DOCTYPE svg PUBLIC "-//W3C//DTD SVG 1.1//EN" "http://www.w3.org/Graphics/SVG/1.1/DTD/svg11.dtd"><svg t="1686491122176" class="icon" viewBox="0 0 1024 1024" version="1.1" xmlns="http://www.w3.org/2000/svg" p-id="1189" data-darkreader-inline-fill="" xmlns:xlink="http://www.w3.org/1999/xlink" width="200" height="200"><path d="M100.864 547.968a807.466667 807.466667 0 0 0 87.808 112.810667C265.984 743.253333 375.466667 821.333333 512 821.333333s246.016-78.08 323.328-160.554666A807.466667 807.466667 0 0 0 944.981333 512a807.424 807.424 0 0 0-109.653333-148.778667C758.016 280.746667 648.533333 202.666667 512 202.666667S265.984 280.746667 188.672 363.221333A807.424 807.424 0 0 0 79.018667 512c4.992 8.789333 12.288 21.162667 21.845333 35.968z m909.013333-50.432l0.085334 0.128a32.042667 32.042667 0 0 1 0 28.629333L1013.333333 512l-3.413333 14.378667v0.085333l-0.170667 0.256-0.426666 0.853333-1.706667 3.242667a777.173333 777.173333 0 0 1-30.72 51.882667 871.68 871.68 0 0 1-94.890667 121.856C799.317333 792.746667 674.133333 885.333333 512 885.333333c-162.133333 0-287.317333-92.586667-370.005333-180.778666a871.509333 871.509333 0 0 1-119.296-162.218667 505.386667 505.386667 0 0 1-7.978667-14.72l-0.469333-0.896-0.128-0.256-0.042667-0.085333v-0.085334a32 32 0 0 1 0-28.586666L10.666667 512l3.413333-14.378667v-0.085333l0.170667-0.256 0.426666-0.853333 1.706667-3.242667a778.026667 778.026667 0 0 1 30.72-51.882667 871.466667 871.466667 0 0 1 94.890667-121.856C224.682667 231.253333 349.866667 138.666667 512 138.666667c162.133333 0 287.317333 92.586667 370.005333 180.778666a871.68 871.68 0 0 1 119.296 162.218667 507.562667 507.562667 0 0 1 7.978667 14.72l0.469333 0.896 0.128 0.256zM416 512a96 96 0 1 1 192 0 96 96 0 0 1-192 0zM512 352a160 160 0 1 0 0 320 160 160 0 0 0 0-320z" p-id="1190"></path></svg>