<?xml version="1.0" standalone="no"?><!DOCTYPE svg PUBLIC "-//W3C//DTD SVG 1.1//EN" "http://www.w3.org/Graphics/SVG/1.1/DTD/svg11.dtd"><svg t="1686491149348" class="icon" viewBox="0 0 1024 1024" version="1.1" xmlns="http://www.w3.org/2000/svg" p-id="1350" data-darkreader-inline-fill="" xmlns:xlink="http://www.w3.org/1999/xlink" width="200" height="200"><path d="M373.333333 298.666667a138.666667 138.666667 0 1 1 277.333334 0 138.666667 138.666667 0 0 1-277.333334 0zM512 96a202.666667 202.666667 0 1 0 0 405.333333 202.666667 202.666667 0 0 0 0-405.333333z m-170.666667 512A202.666667 202.666667 0 0 0 138.666667 810.666667v117.333333h64V810.666667A138.666667 138.666667 0 0 1 341.333333 672h341.333334A138.666667 138.666667 0 0 1 821.333333 810.666667v117.333333h64V810.666667A202.666667 202.666667 0 0 0 682.666667 608H341.333333z" p-id="1351"></path></svg>